<svg width="60" height="60" viewBox="0 0 60 60" fill="none" xmlns="http://www.w3.org/2000/svg">
<rect width="60" height="60" rx="30" fill="#7008E7"/>
<path d="M50.3832 21.0164C47.0596 20.8335 43.7623 21.6974 40.9553 23.4865C40.2765 22.7134 39.5789 21.9403 38.8435 21.2049L38.2967 20.6958L38.5607 20.4695C39.4828 19.678 40.1399 18.6226 40.4433 17.4459C40.7468 16.2692 40.682 15.0276 40.2577 13.8889C39.6447 12.6033 38.6716 11.5233 37.4565 10.7802C36.2415 10.0371 34.8368 9.66285 33.413 9.7029V13.4741C34.0839 13.4647 34.7451 13.6345 35.3285 13.966C35.9119 14.2974 36.3962 14.7785 36.7317 15.3596C37.0522 16.1139 36.7317 16.9435 35.8454 17.8297L35.4117 18.2257C33.4451 16.5867 31.2859 15.1937 28.9819 14.0774C24.2114 11.9279 21.7602 12.9272 20.5534 14.0774C20.1864 14.4466 19.8921 14.8816 19.686 15.3596L19.3466 16.359L16.6314 24.5424C18.781 29.8974 23.9852 39.4196 35.2986 43.5301L44.7265 40.4001C45.0444 40.2817 45.3245 40.0798 45.5373 39.8156L45.9333 39.4762C48.6296 36.7609 46.8949 31.5379 43.2746 26.4657C45.4243 25.2111 47.8995 24.6268 50.3832 24.7875V21.0164ZM43.2369 36.7986H43.1238C41.8227 37.4963 36.43 35.7239 30.3207 29.6146C29.6796 28.9735 29.0762 28.3513 28.5294 27.729C28.3408 27.5216 28.1711 27.2953 27.9826 27.0691L26.9832 25.8623L26.4553 25.1269C26.1913 24.7687 25.9273 24.4104 25.701 24.071C25.4748 23.7316 25.3993 23.5807 25.2485 23.3356C25.0976 23.0905 24.8337 22.6945 24.664 22.374C24.4943 22.0534 24.4188 21.9214 24.3057 21.6763C24.1926 21.4312 23.9851 21.1483 23.872 20.8844C23.7589 20.6204 23.7023 20.4507 23.608 20.2433C23.5138 20.0359 23.4006 19.7342 23.3252 19.489C23.2498 19.2439 23.2309 19.1308 23.1932 18.9422C23.1555 18.7537 23.0801 18.4897 23.0424 18.3011C23.0333 18.1504 23.0333 17.9993 23.0424 17.8486C23.0246 17.6857 23.0246 17.5213 23.0424 17.3583L23.2498 16.7738C23.5703 16.4344 24.9657 16.3401 27.4546 17.4715C29.1168 18.2727 30.6905 19.2459 32.1497 20.3753C31.3546 20.7251 30.5073 20.9416 29.6419 21.0164V24.7875C31.6455 24.6762 33.5897 24.067 35.2986 23.0151L36.2225 23.8824C37.0522 24.6932 37.7876 25.504 38.4664 26.2771C37.3281 28.2152 36.8764 30.4805 37.1842 32.7069L40.9553 31.9716C40.8267 31.2608 40.8267 30.5327 40.9553 29.822C43.3877 33.5366 43.8403 36.2141 43.2369 36.7986ZM15.3115 28.5587L11.1067 41.192C10.8032 42.1196 10.7235 43.1057 10.8741 44.0699C11.0248 45.0342 11.4014 45.9491 11.9734 46.7398C12.5453 47.5306 13.2962 48.1748 14.1648 48.6197C15.0334 49.0647 15.9949 49.2978 16.9708 49.3C17.6124 49.2941 18.2489 49.1859 18.8564 48.9795L31.1503 44.8878C24.2117 41.3441 18.6421 35.6021 15.3115 28.5587Z" fill="white"/>
</svg>
