<svg width="366" height="72" viewBox="0 0 366 72" fill="none" xmlns="http://www.w3.org/2000/svg">
<path d="M96.36 57.088C92.2213 57.088 88.488 56.2347 85.16 54.528C81.832 52.8213 79.1867 50.304 77.224 46.976C75.304 43.648 74.344 39.5947 74.344 34.816C74.344 31.232 74.92 28.0533 76.072 25.28C77.2667 22.5067 78.888 20.1813 80.936 18.304C83.0267 16.384 85.416 14.9547 88.104 14.016C90.792 13.0347 93.6507 12.544 96.68 12.544C99.0267 12.544 101.224 12.8213 103.272 13.376C105.32 13.888 107.283 14.656 109.16 15.68L109.416 24.064H107.688L105 19.008C104.573 18.1547 104.104 17.3867 103.592 16.704C103.123 16.0213 102.504 15.5307 101.736 15.232C100.669 14.72 99.4107 14.464 97.96 14.464C95.4427 14.464 93.1387 15.104 91.048 16.384C89 17.664 87.3573 19.7973 86.12 22.784C84.8827 25.728 84.264 29.76 84.264 34.88C84.264 39.9573 84.84 43.9893 85.992 46.976C87.1867 49.9627 88.7867 52.096 90.792 53.376C92.7973 54.6133 95.0587 55.232 97.576 55.232C98.728 55.232 99.6667 55.1467 100.392 54.976C101.117 54.8053 101.843 54.5707 102.568 54.272C103.421 53.9307 104.083 53.44 104.552 52.8C105.021 52.1173 105.427 51.3493 105.768 50.496L108.2 44.672H109.928L109.672 53.888C107.837 54.912 105.811 55.7013 103.592 56.256C101.373 56.8107 98.9627 57.088 96.36 57.088ZM124.106 56.896C121.674 56.896 119.605 56.2133 117.898 54.848C116.234 53.44 115.402 51.4347 115.402 48.832C115.402 46.784 116.384 44.9067 118.346 43.2C120.352 41.4507 123.488 40.1707 127.754 39.36C128.48 39.1893 129.312 39.04 130.25 38.912C131.232 38.7413 132.192 38.5707 133.13 38.4V33.856C133.13 30.9547 132.768 28.9493 132.042 27.84C131.317 26.7307 130.165 26.176 128.586 26.176H128.394C127.413 26.176 126.624 26.496 126.026 27.136C125.472 27.7333 125.109 28.736 124.938 30.144L124.746 30.976C124.618 32.6827 124.17 33.9413 123.402 34.752C122.634 35.52 121.674 35.904 120.522 35.904C119.456 35.904 118.56 35.584 117.834 34.944C117.152 34.2613 116.81 33.3867 116.81 32.32C116.81 30.5707 117.408 29.0987 118.602 27.904C119.797 26.7093 121.376 25.8133 123.338 25.216C125.344 24.6187 127.498 24.32 129.802 24.32C133.6 24.32 136.501 25.2373 138.507 27.072C140.512 28.9067 141.514 31.8933 141.514 36.032V50.304C141.514 52.1387 142.389 53.056 144.139 53.056H145.611L146.25 53.76C145.482 54.7413 144.629 55.488 143.691 56C142.752 56.5547 141.472 56.832 139.851 56.832C138.016 56.832 136.544 56.4053 135.434 55.552C134.368 54.656 133.664 53.4827 133.322 52.032C131.957 53.4827 130.613 54.656 129.29 55.552C127.968 56.448 126.24 56.896 124.106 56.896ZM127.818 52.8C128.672 52.8 129.482 52.608 130.25 52.224C131.018 51.84 131.978 51.2 133.13 50.304V40.064C132.021 40.2347 130.89 40.448 129.738 40.704C127.904 41.1307 126.41 41.92 125.258 43.072C124.149 44.224 123.594 45.7813 123.594 47.744C123.594 49.4507 123.978 50.7307 124.746 51.584C125.557 52.3947 126.581 52.8 127.818 52.8ZM160.693 56.896C158.645 56.896 156.789 56.6613 155.125 56.192C153.504 55.7653 151.947 55.1467 150.453 54.336V46.784H152.181L154.101 50.432C154.912 52.0107 155.829 53.184 156.853 53.952C157.92 54.72 159.264 55.104 160.885 55.104C162.891 55.104 164.491 54.6773 165.685 53.824C166.88 52.928 167.477 51.7333 167.477 50.24C167.477 48.8747 167.029 47.7653 166.133 46.912C165.237 46.0587 163.637 45.2693 161.333 44.544L158.517 43.648C156 42.88 153.995 41.728 152.501 40.192C151.051 38.6133 150.325 36.6507 150.325 34.304C150.325 32.4693 150.816 30.8053 151.797 29.312C152.779 27.776 154.208 26.56 156.085 25.664C157.963 24.768 160.245 24.32 162.933 24.32C164.683 24.32 166.283 24.5333 167.733 24.96C169.227 25.344 170.677 25.8987 172.085 26.624L171.701 33.472H170.037L168.053 29.824C167.371 28.4587 166.667 27.52 165.941 27.008C165.259 26.4533 164.192 26.176 162.741 26.176C161.205 26.176 159.84 26.5813 158.645 27.392C157.493 28.16 156.917 29.248 156.917 30.656C156.917 31.9787 157.408 33.0667 158.389 33.92C159.371 34.7307 160.949 35.4987 163.125 36.224L165.877 37.056C168.992 38.0373 171.211 39.3387 172.533 40.96C173.856 42.5813 174.517 44.5227 174.517 46.784C174.517 49.8133 173.301 52.2667 170.869 54.144C168.48 55.9787 165.088 56.896 160.693 56.896ZM191.386 56.896C188.741 56.896 186.65 56.256 185.114 54.976C183.621 53.6533 182.874 51.52 182.874 48.576C182.874 47.552 182.874 46.592 182.874 45.696C182.917 44.7573 182.938 43.6693 182.938 42.432V27.264H178.394V25.856L180.122 25.6C181.359 25.3867 182.405 25.0027 183.258 24.448C184.154 23.8933 184.965 23.1253 185.69 22.144L189.85 16.384H191.77L191.578 25.28H198.874V27.264H191.514V49.088C191.514 50.624 191.834 51.776 192.474 52.544C193.157 53.312 193.989 53.696 194.97 53.696C195.823 53.696 196.591 53.504 197.274 53.12C197.957 52.6933 198.639 52.1387 199.322 51.456L200.154 52.416C199.343 53.824 198.213 54.9333 196.762 55.744C195.311 56.512 193.519 56.896 191.386 56.896ZM203.899 70.784V69.568L204.731 69.312C205.584 69.0987 206.182 68.736 206.523 68.224C206.864 67.7547 207.035 67.072 207.035 66.176C207.035 64.4267 207.035 62.7627 207.035 61.184C207.078 59.648 207.099 58.1547 207.099 56.704V39.104C207.099 37.7813 207.099 36.6507 207.099 35.712C207.099 34.7307 207.078 33.6427 207.035 32.448C207.035 31.552 206.886 30.8693 206.587 30.4C206.288 29.888 205.712 29.5467 204.859 29.376L203.899 29.184V28.032L214.203 24.32L214.971 24.96L215.547 27.328C218.491 25.3227 221.819 24.32 225.531 24.32C229.158 24.32 232.059 25.6853 234.235 28.416C236.454 31.1467 237.563 35.1787 237.563 40.512C237.563 45.6747 236.347 49.7067 233.915 52.608C231.526 55.4667 228.262 56.896 224.123 56.896C222.459 56.896 220.88 56.7467 219.387 56.448C217.936 56.1493 216.635 55.7013 215.483 55.104V57.024C215.483 58.304 215.483 59.6907 215.483 61.184C215.526 62.6773 215.547 64.2987 215.547 66.048C215.547 67.7547 216.294 68.8213 217.787 69.248L219.003 69.568V70.784H203.899ZM221.115 54.336C223.376 54.336 225.147 53.3333 226.427 51.328C227.75 49.28 228.411 45.76 228.411 40.768C228.411 35.8187 227.792 32.3627 226.555 30.4C225.318 28.3947 223.568 27.392 221.307 27.392C220.496 27.392 219.622 27.52 218.683 27.776C217.744 28.032 216.742 28.4587 215.675 29.056V53.248C217.382 53.9733 219.195 54.336 221.115 54.336ZM251.412 56.896C248.98 56.896 246.91 56.2133 245.204 54.848C243.54 53.44 242.708 51.4347 242.708 48.832C242.708 46.784 243.689 44.9067 245.652 43.2C247.657 41.4507 250.793 40.1707 255.06 39.36C255.785 39.1893 256.617 39.04 257.556 38.912C258.537 38.7413 259.497 38.5707 260.436 38.4V33.856C260.436 30.9547 260.073 28.9493 259.348 27.84C258.622 26.7307 257.47 26.176 255.892 26.176H255.7C254.718 26.176 253.929 26.496 253.332 27.136C252.777 27.7333 252.414 28.736 252.244 30.144L252.052 30.976C251.924 32.6827 251.476 33.9413 250.708 34.752C249.94 35.52 248.98 35.904 247.828 35.904C246.761 35.904 245.865 35.584 245.14 34.944C244.457 34.2613 244.116 33.3867 244.116 32.32C244.116 30.5707 244.713 29.0987 245.908 27.904C247.102 26.7093 248.681 25.8133 250.644 25.216C252.649 24.6187 254.804 24.32 257.108 24.32C260.905 24.32 263.806 25.2373 265.812 27.072C267.817 28.9067 268.82 31.8933 268.82 36.032V50.304C268.82 52.1387 269.694 53.056 271.444 53.056H272.916L273.556 53.76C272.788 54.7413 271.934 55.488 270.996 56C270.057 56.5547 268.777 56.832 267.156 56.832C265.321 56.832 263.849 56.4053 262.74 55.552C261.673 54.656 260.969 53.4827 260.628 52.032C259.262 53.4827 257.918 54.656 256.596 55.552C255.273 56.448 253.545 56.896 251.412 56.896ZM255.124 52.8C255.977 52.8 256.788 52.608 257.556 52.224C258.324 51.84 259.284 51.2 260.436 50.304V40.064C259.326 40.2347 258.196 40.448 257.044 40.704C255.209 41.1307 253.716 41.92 252.564 43.072C251.454 44.224 250.9 45.7813 250.9 47.744C250.9 49.4507 251.284 50.7307 252.052 51.584C252.862 52.3947 253.886 52.8 255.124 52.8ZM276.739 56V54.784L277.699 54.464C278.552 54.2507 279.128 53.888 279.427 53.376C279.768 52.864 279.939 52.1813 279.939 51.328V32.576C279.896 31.6373 279.726 30.9333 279.427 30.464C279.128 29.952 278.552 29.6107 277.699 29.44L276.739 29.184V28.032L287.171 24.32L287.939 25.024L288.515 30.656V31.104C289.155 29.9093 289.966 28.8 290.947 27.776C291.928 26.752 292.995 25.92 294.147 25.28C295.299 24.64 296.451 24.32 297.603 24.32C299.224 24.32 300.44 24.7467 301.251 25.6C302.062 26.4533 302.467 27.5413 302.467 28.864C302.467 30.3147 302.062 31.424 301.251 32.192C300.44 32.9173 299.459 33.28 298.307 33.28C296.6 33.28 295.128 32.512 293.891 30.976L293.763 30.848C293.336 30.336 292.846 30.0587 292.291 30.016C291.779 29.9307 291.267 30.1867 290.755 30.784C290.328 31.2107 289.923 31.7227 289.539 32.32C289.198 32.8747 288.878 33.536 288.579 34.304V51.072C288.579 51.8827 288.75 52.5653 289.091 53.12C289.432 53.632 290.008 53.9947 290.819 54.208L292.739 54.784V56H276.739ZM319.129 56.896C316.483 56.896 314.393 56.256 312.857 54.976C311.363 53.6533 310.617 51.52 310.617 48.576C310.617 47.552 310.617 46.592 310.617 45.696C310.659 44.7573 310.681 43.6693 310.681 42.432V27.264H306.137V25.856L307.865 25.6C309.102 25.3867 310.147 25.0027 311.001 24.448C311.897 23.8933 312.707 23.1253 313.433 22.144L317.593 16.384H319.513L319.321 25.28H326.617V27.264H319.257V49.088C319.257 50.624 319.577 51.776 320.217 52.544C320.899 53.312 321.731 53.696 322.713 53.696C323.566 53.696 324.334 53.504 325.017 53.12C325.699 52.6933 326.382 52.1387 327.065 51.456L327.897 52.416C327.086 53.824 325.955 54.9333 324.505 55.744C323.054 56.512 321.262 56.896 319.129 56.896ZM337.711 71.424C336.004 71.424 334.66 71.0187 333.679 70.208C332.698 69.3973 332.207 68.3307 332.207 67.008C332.207 65.8133 332.612 64.8533 333.423 64.128C334.276 63.4453 335.215 63.104 336.239 63.104C337.306 63.104 338.18 63.296 338.863 63.68C339.546 64.064 340.143 64.6187 340.655 65.344L341.039 65.856C342.02 67.0507 342.938 67.0293 343.791 65.792C344.346 65.0667 344.879 64.1707 345.391 63.104C345.946 62.0373 346.543 60.6293 347.183 58.88L335.023 29.824C334.724 29.0133 334.383 28.3947 333.999 27.968C333.615 27.4987 333.039 27.1147 332.271 26.816L331.183 26.432V25.28H346.991V26.432L345.647 26.816C344.708 27.1147 344.196 27.584 344.111 28.224C344.068 28.8213 344.218 29.6107 344.559 30.592L351.087 47.616L357.359 30.464C357.7 29.5253 357.828 28.736 357.743 28.096C357.658 27.456 357.124 27.0293 356.143 26.816L354.735 26.432V25.28H364.271V26.432L362.863 26.88C361.924 27.136 361.242 27.52 360.815 28.032C360.431 28.5013 360.068 29.2053 359.727 30.144L349.487 57.664C347.78 62.3573 346.031 65.8133 344.239 68.032C342.49 70.2933 340.314 71.424 337.711 71.424Z" fill="black"/>
<rect y="4" width="60" height="60" rx="30" fill="#7008E7"/>
<path d="M50.3832 25.0164C47.0596 24.8335 43.7623 25.6974 40.9553 27.4865C40.2765 26.7134 39.5789 25.9403 38.8435 25.2049L38.2967 24.6958L38.5607 24.4695C39.4828 23.678 40.1399 22.6226 40.4433 21.4459C40.7468 20.2692 40.682 19.0276 40.2577 17.8889C39.6447 16.6033 38.6716 15.5233 37.4565 14.7802C36.2415 14.0371 34.8368 13.6628 33.413 13.7029V17.4741C34.0839 17.4647 34.7451 17.6345 35.3285 17.966C35.9119 18.2974 36.3962 18.7785 36.7317 19.3596C37.0522 20.1139 36.7317 20.9435 35.8454 21.8297L35.4117 22.2257C33.4451 20.5867 31.2859 19.1937 28.9819 18.0774C24.2114 15.9279 21.7602 16.9272 20.5534 18.0774C20.1864 18.4466 19.8921 18.8816 19.686 19.3596L19.3466 20.359L16.6314 28.5424C18.781 33.8974 23.9852 43.4196 35.2986 47.5301L44.7265 44.4001C45.0444 44.2817 45.3245 44.0798 45.5373 43.8156L45.9333 43.4762C48.6296 40.7609 46.8949 35.5379 43.2746 30.4657C45.4243 29.2111 47.8995 28.6268 50.3832 28.7875V25.0164ZM43.2369 40.7986H43.1238C41.8227 41.4963 36.43 39.7239 30.3207 33.6146C29.6796 32.9735 29.0762 32.3513 28.5294 31.729C28.3408 31.5216 28.1711 31.2953 27.9826 31.0691L26.9832 29.8623L26.4553 29.1269C26.1913 28.7687 25.9273 28.4104 25.701 28.071C25.4748 27.7316 25.3993 27.5807 25.2485 27.3356C25.0976 27.0905 24.8337 26.6945 24.664 26.374C24.4943 26.0534 24.4188 25.9214 24.3057 25.6763C24.1926 25.4312 23.9851 25.1483 23.872 24.8844C23.7589 24.6204 23.7023 24.4507 23.608 24.2433C23.5138 24.0359 23.4006 23.7342 23.3252 23.489C23.2498 23.2439 23.2309 23.1308 23.1932 22.9422C23.1555 22.7537 23.0801 22.4897 23.0424 22.3011C23.0333 22.1504 23.0333 21.9993 23.0424 21.8486C23.0246 21.6857 23.0246 21.5213 23.0424 21.3583L23.2498 20.7738C23.5703 20.4344 24.9657 20.3401 27.4546 21.4715C29.1168 22.2726 30.6905 23.2459 32.1497 24.3753C31.3546 24.7251 30.5073 24.9416 29.6419 25.0164V28.7875C31.6455 28.6762 33.5897 28.067 35.2986 27.0151L36.2225 27.8824C37.0522 28.6932 37.7876 29.504 38.4664 30.2771C37.3281 32.2152 36.8764 34.4805 37.1842 36.7069L40.9553 35.9716C40.8267 35.2608 40.8267 34.5327 40.9553 33.822C43.3877 37.5366 43.8403 40.2141 43.2369 40.7986ZM15.3115 32.5587L11.1067 45.192C10.8032 46.1196 10.7235 47.1057 10.8741 48.07C11.0248 49.0342 11.4014 49.9491 11.9734 50.7398C12.5453 51.5306 13.2962 52.1748 14.1648 52.6197C15.0334 53.0647 15.9949 53.2978 16.9708 53.3C17.6124 53.2941 18.2489 53.1859 18.8564 52.9795L31.1503 48.8878C24.2117 45.3441 18.6421 39.6021 15.3115 32.5587Z" fill="white"/>
</svg>
